<svg width="25" height="25" viewBox="0 0 25 25" fill="none" xmlns="http://www.w3.org/2000/svg">
<g id="plus-square">
<g id="Vector">
<path fill-rule="evenodd" clip-rule="evenodd" d="M5.20801 4.16667C4.63271 4.16667 4.16634 4.63304 4.16634 5.20834V19.7917C4.16634 20.367 4.63271 20.8333 5.20801 20.8333H19.7913C20.3666 20.8333 20.833 20.367 20.833 19.7917V5.20834C20.833 4.63304 20.3666 4.16667 19.7913 4.16667H5.20801ZM2.08301 5.20834C2.08301 3.48245 3.48212 2.08334 5.20801 2.08334H19.7913C21.5172 2.08334 22.9163 3.48245 22.9163 5.20834V19.7917C22.9163 21.5176 21.5172 22.9167 19.7913 22.9167H5.20801C3.48212 22.9167 2.08301 21.5176 2.08301 19.7917V5.20834Z" fill="#555555"/>
<path fill-rule="evenodd" clip-rule="evenodd" d="M12.4997 7.29167C13.075 7.29167 13.5413 7.75804 13.5413 8.33334V16.6667C13.5413 17.242 13.075 17.7083 12.4997 17.7083C11.9244 17.7083 11.458 17.242 11.458 16.6667V8.33334C11.458 7.75804 11.9244 7.29167 12.4997 7.29167Z" fill="#555555"/>
<path fill-rule="evenodd" clip-rule="evenodd" d="M7.29134 12.5C7.29134 11.9247 7.75771 11.4583 8.33301 11.4583H16.6663C17.2416 11.4583 17.708 11.9247 17.708 12.5C17.708 13.0753 17.2416 13.5417 16.6663 13.5417H8.33301C7.75771 13.5417 7.29134 13.0753 7.29134 12.5Z" fill="#555555"/>
</g>
</g>
</svg>
